/* XPM */
static char *__EA1699569678[] = {
/* columns rows colors chars-per-pixel */
"128 128 82 1 ",
"  c #251516",
". c #241616",
"X c #251716",
"o c #251717",
"O c #261616",
"+ c #261617",
"@ c #271717",
"# c #261817",
"$ c #271718",
"% c #261818",
"& c #271918",
"* c #271919",
"= c #281818",
"- c #281819",
"; c #321E1D",
": c #331E1D",
"> c #331F1E",
", c #321E1F",
"< c #34201F",
"1 c #35201F",
"2 c #331F20",
"3 c #341E20",
"4 c #322020",
"5 c #362120",
"6 c #362221",
"7 c #372221",
"8 c #382322",
"9 c #3A2222",
"0 c #3B2323",
"q c #392423",
"w c #3C2424",
"e c #3D2525",
"r c #3E2425",
"t c #3F2526",
"y c #3E2626",
"u c #3F2727",
"i c #611B1B",
"p c #611D1C",
"a c #601C1D",
"s c #611D1E",
"d c #691B1B",
"f c #711717",
"g c #711918",
"h c #721818",
"j c #571F20",
"k c #422321",
"l c #462222",
"z c #402423",
"x c #432422",
"c c #402325",
"v c #412524",
"b c #402627",
"n c #482122",
"m c #4D2120",
"M c #4D2122",
"N c #412728",
"B c #442729",
"V c #422829",
"C c #43292A",
"Z c #462A29",
"A c #45282A",
"S c #46292B",
"D c #472B2A",
"F c #482C2B",
"G c #492D2C",
"H c #4A2C2C",
"J c #4B2D2D",
"K c #4A2E2D",
"L c #4D2D2E",
"P c #4C2E2E",
"I c #4E2E2F",
"U c #562020",
"Y c #4F2F30",
"T c #4E3030",
"R c #4F3131",
"E c #503031",
"W c #513132",
"Q c #911314",
"! c #931314",
"~ c #A50F0E",
"^ c #CD090A",
"/ c #CF090A",
/* pixels */
"WWWWWWWWWWWWWWWWWWWWWWWWWWWWWWWWWWWWWWWWWWWWWWWWWWWWWWWWWWWWWWWWWWWWWWWWWWWWWWWWWWWWWWWWWWWWWWWWWWWWWWWWWWWWWWWWWWWWWWWWWWWWWWWW",
"WWWWWWWWWWWWWWWWWWWWWWWWWWWWWWWWWWWWWWWWWWWWWWWWWWWWWWWWWWWWWWWWWWWWWWWWWWWWWWWWWWWWWWWWWWWWWWWWWWWWWWWWWWWWWWWWWWWWWWWWWWWWWWWW",
"WYWYWYWYTWWWWWWWWYWYWYWYWWWWTWWYWTEWWTWTEEWEEEEEEEEEEEEEEEEEEEEETWEEWTEWWEEEEEEEEEEEEEEETWEEWTEWWWWWWWWWEEEEEEEEEEEEEEEEEEEEEEEE",
"YWYWYWYWWTTTTTTTYWYWYWYWTTTTWTWTTWTTTWTWEEEEEEEEEEEEEEEEEEEEEEEEWTWTTWTTEEEEEEEEEEEEEEEEWTWTTWTTWEEEEEEEEEEEEEEEEEEEEEEEEEEEEEEE",
"WYWYWYWYWYWYWYWYWYWYWYWYWYWYTYWYEEEEEEWTEEEEEEEEEEEWEEEEEEEEEEEWTWEEEEEEEEEWEEEEEEEEEEWTTWEEEEEEEEWTEEEEEEEEEEWTEEEEEEEEEEEWEEEE",
"YWYWYWYWYWYWYWYWYWYWYWYWYWYWWWYWWTEEEEETEEWTEEWTEEETEEEEWTEEEEETEEWTEEWTEEETEEEEWTEEEEETEEWTEEWTYYYYYYYYWTEEEEETEEWTEEWTEEETEEEE",
"YYYYYYYYYYYYYYYYYYYYYYYYYYYYYYYYYYYYYYYYYYYYYYYYYYYYYYYYYYYYYYYYYYYYYYYYYYYYYYYYYYYYYYYYYYYYYYYYYYYYYYYYYYYYYYYYYYYYYYYYYYYYYYYY",
"TTTTTTTTTTTTTTTTTTTTTTTTTTTTTTTTTTTTTYTYYTTTYTTTTYTTTTTYTTTTTYTYYTTTYTTTTYTTTTTYTTTTTYTTYTTTYTTTTYTTTTTYTTTTTYTYYTTTYTTTTYTTTTTY",
"YYYYYYYYYYYYYYYYYYYYYYYYYYYYYYYYYYYYYYYYYYYYYYYYYYYYYYYYYYTWYYYYYYYYYYYYYYYYYYYYYYYYYYYYYYYYYYYYYYYYYYYYYYYYYYYYYYYYYYYYYYYYYYYY",
"YYYYYYYYYYYYYYYYYYYYYYYYYYYYYYYYYYYYYYYYYYYYYYYYYYYYYYYYYYYYYYYYYYYYYYYYYYYYYYYYYYYYYYYYYYYYYYYYYYYYYYYYYYYYYYYYYYYYYYYYYYYYYYYY",
"YYYYYYYYYYYYYYYYYYYYYYYYYYYYYYYYYYYYYYYYYYYYYYYYYYYYYYYYYYYYYYYYYYYYYYYYYYYYYYYYYYYYYYYYYYYYYYYYYYYYYYYYYYYYYYYYYYYYYYYYYYYYYYYY",
"IIIIIIIIIIIIIIIIIIIIIIIIIIIIIIIIIIIIIIIIIIIIIIIIIIIYIIIIYIIYIYIIIIIIIIIIYIIIIIIIIIIIIIIIIIIIIIIIIIIYIIIIIIIIIIIIIIIIIIIIYIIIIIII",
"IIIIIIIIIIIIIIIIIIIIIIIIIIIIIIIIIIIIIIIIIIIIIIIIIIIIIIIIIIIIIIIIIIIIIIIIIIIIIIIIIIIIIIIIIIIIIIIIIIIIIIIIIIIIIIIIIIIIIIIIIIIIIIII",
"IIIIIIIIIIIIIIIIIIIIIIIIIIIIIIIIIIIIIIIIIIIIIIIIIIIIIIIIIIIIIIIIIIIIIIIIIIIIIIIIIIIIIIIIIIIIIIIIIIIIIIIIIIIIIIIIIIIIIIIIIIIIIIII",
"IIIIIIIIIIIIIIIIIIIIIIIIIIIIIIIIIIIIIIIIIIIIIIIIIIIIIIIIIIIIIIIIIIIIIIIIIIIIIIIIIIIIIIIIIIIIIIIIIIIIIIIIIIIIIIIIIIIIIIIIIIIIIIII",
"IIIIIIIIIIIIIIIIIIIIIIIIIIIIIIIIIIIIIIIIIIIIIIIIIIIIIIIIYIIIYYIIIIIIIIIIIIIIIIIIIIIIIIIIIIIIIIIIIIIIIIIIIIIIIIIIIIIIIIIIIIIIIIII",
"IIIIIIIIIIIIIITPIIIIIIIIIIIIIIIITYYIIIYIIIIIIIIIIIIYIIIIIIIIIIYTIIYIIIIIYIIIIIIIJIIIJJJJYIIIIIIIIIIYIIIIIIIIIIYTIIIIIIIIIIYIIIII",
"IJIIIJIIIJIIIJIJIIHIIIJIJIIIJIJIJJJIJIJIIJJIIYJIIIJIIIJIIIJIJIJJJIJIIJJIIJJIIJIYJIJIIJIIIJJIIJIYIIJIIIJIIIJIJIJJIJJIIYJIJIJIIJJI",
"JJPPJJPPJJPPJJPPIJIJPPPPJJIPPJJIPPPPJJITIJIJJJTJJJTJJJJTJJJTJIPPJJITIJIJPPPPJJJJJJITJIJIPPPPJJJJJJTJJJJTJJJTJIPPIJIJJJTJJJITIJIJ",
"JIPPJIPPJIPPJIPPJJIJPPPPIJJPPIJJPPPPIJJJJJIJTJJJIJJJIJJTIJJTJJPPIJJJJJIJPPPPJITJIJJJJJIIPPPPJITJIJJJIJJTIJJTJJPPJJIJTJJJIJJJJJIJ",
"PPPPPPPPPPPPPPPPPPPPPPPPPPPPPPPPPPPPPPPPJTJJTJJTJJJTTJJJJJJTPPPPJTTJJJTJPPPPPPPPJJJTIIJJPPPPPPPPJJJTTJJJJJJTPPPPJTJJTJJTJTTJJJTJ",
"PPPPPPPPPPPPPPPPPPPPPPPPPPPPPPPPPPPPPPPPJJTJTJJTJTJJJJTJJTJJPPPPJJJJTJTJPPPPPPPPTTJJJJJTPPPPPPPPJTJJJJTJJTJJPPPPJJTJTJJTJJJJTJTJ",
"PPPPPPPPPPPPPPPPPPPPPPPPPPPPPPPPPPPPPPPPTTJJJJJJTJTJJTJTTJTJPPPPTJJTJTJJPPPPPPPPJJTJJJJTPPPPPPPPTJTJJTJTTJTJPPPPTTJJJJJJTJJTJTJJ",
"PPPPPPPPPPPPPPPPPPPPPPPPPPPPPPPPPPPPPPPPJJJTJTTJJJTJJTJJJJTJPPPPTJJTJJJTPPPPPPPPJTJJTTJJPPPPPPPPJJTJJTJJJJTJPPPPJJJTJTTJTJJTJJJT",
"PPPPPPPPPPPPPPPPPPPPPPJJPPPPPPPPPPPPPPPPPPPPPPJJJTPPPPPPPPPPPPPPJJTJPPPPPPPPPPPPJTJJPPPPPPPPPPPPJTPPPPPPPPPPPPPPPPPPPPJJJJPPPPPP",
"JJJJJJJJJJJJJJJPJJJJJJJJJJJJJJJJJJJJJJJPJJJPJJJJJJJJJJJJJJJJJJJPJJJJJJJJJJJJJJJJJJJJJJJJJJJJJJJJJJJJJJJJJJJJJJJPJJJPJJJJJJJJJJJJ",
"PPGPGGGGJJJJGPGGGGGPPPJJPPGPGGGGJGGJPGGGGPGGPPJGJJPGPGGPJGGJPGGGGPJPJGGJPGPGJGGJGPPPJGGJPGPGJGGJJJPGPGGPJGGJPGGGGPGGPPJGPPPGPGGP",
"JJJJPJPPJJJJJJPJPPJJJJJJJJJJPJPPJJJJJJPJGPJJJJJJJJJJPJGPJJJJJJPJJJJJJJJJPJJJJJJJJJJJJJJJPJJJJJJJJJJJPJGPJJJJJJPJGPJJJJJJJJJJPJGP",
"JJJJPJJJJJJJJJJJJJJJJJJJJJJJPJJJJJJJJJJJJJJJJJJJJJJJGJJJJJJJJJJJJJJJJJJJGJJJJJJJJJJJJJJJGJJJJJJJJJJJGJJJJJJJJJJJJJJJJJJJJJJJGJJJ",
"FJFJFJJFJFHHFJFJFJJFJFHHFJFJFJJFHHHHHHHHGJJGHHHHHHHHGJJGHHHHHHHHJGHHHHHHJGHHHHHHJGHHHHHHJGHHHHHHHHHHGJJGHHHHHHHHGJJGHHHHHHHHGJJG",
"JHJFFJFJFJFJJHJFFJFJFJFJJHJFFJFJJHHJHHJHHJFJJHHJHHJHHJFJJHHJHHJHGJFJHJHJGJFJHJHJGJFJHJHJGJFJHJHJHHJHHJFJJHHJHHJHHJFJJHHJHHJHHJFJ",
"JFGFJFJFJFJFJFGFJFJFJFJFJFGFJFJFGGFGGFGGFGGFGGFGGFGGFGGFGGFGGFGGGGGGFGFGGGGGFGFGGGGGFGFGGGGGFGFGGFGGFGGFGGFGGFGGFGGFGGFGGFGGFGGF",
"FJFJFFFFFPFFFKFKFGGGGGGGGGGGGGGGGGGGGGGGGGGGGGGGGGGGGGGGGGGGGGGGGGGGGGGGGGGGGGGJFFFFFFFFGGGGGGGGGGGGGGGGFFFFFFFFJFGGGGGGGGGGGGGG",
"FFFFFFFFFFFFFFFFFFFFFFFFFFFFFFFFFFFFFFFFFFFFFFFFFFFFFFFFFFFFFFFFFFFFFFFFFFFFFFGZFFFFFFFFFFFFFFFFFFFFFFFFFFFFFFFFFFFFFFFFFFFFFFFF",
"FFFFFFFFFFFFFFFFFFFFFFZFFFFFFFFFFFFFFFFFFFFFFGFFFFFFFFFFFFFFFFFFFFFFFFFFFFFFFFGGFFFFFFFFFFFFFFFFFFFFFFFFGFFJFFFFFFFFFFFFFFFFFFFF",
"FFFFFFFFFFFZZFFFFFFFFFFZFFFFFFFFFFFFFFFFZFZFZZFZFFFFFFFFFFFFFFFFFFFFFFFFFFFFFFZGFFFFFFFFFFFFFFFGFFFFFFFFZFZZZFZFFFFFFFFFFZFZZFZF",
"FFZFZFZFFFFFFFFFZFZFFZFGZFZFZFZFZFZFZFZFFFFGGFFFZFZFFZFZZFZFZFZFZFZFZFZFZFZFZFZFZFZFZFZFZFZFSFFZZFZFZFZFZFZFZFZFFZFZFZFZFFFFFFFF",
"FZFFFZFZZFZFFZZFFZFZZFZZFZFZFZFZFZFZFZFZZFZZZFFZZZZZZZZZZZZZZZZZFZFZFZFZFZFZFZFZFZFZFZFZFZFZZGZFFZFZFZFZFZFZFZFSZZZZZZZZZFZFFZZF",
"VZZZZZZZZZZZZZZZZZZZZZZZZZZZZZZZZZZZZZZZZZZZZZZZZZZZZZZZZZZZZZZZFZZFZFFZFZZFZFFSFZZFZFFFZZVZZZZZZZZZZZZZZZZZZZZZZZZZZZZZZZZZZZZZ",
"ZZZZZZZZZZZZZZZZFZZZZZZZZZZZZZZZZZZZZZZZZZZZZZZZZZZZZZZZZZZZZZZZZZZZZZZZZZZZZZZZZZZZZZZZZZZZZZZZZZZZZZZZZZZZZZZZZZZZZZZZZZZZZZZZ",
"ZZZZZZZZZZZZZZZZFFZZZZZFZZZZZZZZZZZZZZZZZZZZZZZZZZZZZSZFZZZZZZZZZZZZZZZZZZZZZZZZZZZZZZZZZZZZZZZZZZZZZZZZZZZZZZZZZZZFFSZZZZZZZZZZ",
"FZFZFZFSZFZFFZZFSZZZZZFZZZZZZZZZZZZZZZZZZZZZZZZZZZZZFFFZZFZFFSZGFZFZZFFZZZZZZZZZFZFZZFFZZZZZZZZZZFFZFSZFZZZZZZZZZZFZFZZZZZZZZZZZ",
"ZZZZZZZZZZZZZZZZZZZZZZZZZZZZZZSZZZZZZZZZZZZZZZZZZZZZZZZZZZZZZZSZZZZZZZZZZZZZZZZZZZZZZZZZZZSSZZZZZZZZZZZZZZZZZZZZZZZZZZZZZZZZZZZZ",
"ZZZZZZZZZZZZZZZZZZZZZZZZZZZZZZSSZZZZZZZZZZZZZZZZZZZZZZZZZZZZZZSSZZZZZZZZZZZZZZZZZZZZZZZZZZZSZZZZZZZZZZZZZZZZZZZZZZZZZZZZZZZZZZZZ",
"ZAAAAAAAAAAAVZZZSBSSBSSSSSSSSSSSBSBSSBSSBSBSZSBSSSSSBSBSZSBSAAAAAAAAVSZAAAAAAAAAAAAAVZBANSSSSNSNVZAAAAAAZBAAAAAAZSBSSBSSBSBSVSVS",
"VCCCCCCCCCCCVVCVCCVCCCVCCCCCCCCCCCCVCCVCCCCCVCCVCCCCCCCCVCCVCCCCCCCCVVCCCCCCCCCCCCCCVZCCCCNSSCSCCVCCCCCCCCCCCCCCVVCVCCVCCCCCVZCV",
"CCCCCCCCCCCCCCCCCCCCCCCCCCCCCCCCCCCCCCCCCCCCCCCCCCCCCCCCCCCCCCCCCCCCCCCCCCCCCCCCCCCCCCCCCCCCCCCCCCCCCCCCCCCCCCCCCCCCCCCCCCCCCCCC",
"CCCCCCCCCCCCCCCCCCCCCCCCCCCCCCCSCCCCCCCCCCCCCCCCCCCCCCCCCCCCCCCSCCCCCCCCCCCCCCCCCCCCCCCCCCCCCCCSCCCCCCCCCCCCCCCCCCCCCCCCCCCCCCCC",
"BBBBBBBBAAAAANAAANAAAAANANAAAAANBBBBBBBBAAAAANAAANAAAAANANAAAAANBBBBANAAAANAAAAAANAAAAANAAAANSAAAAAAAAAACNCNCNCNBBBBNAAAANAAAAAN",
"VBVVVVVVNCNNANNCANNCNNANCNNNNNCNVVVVVVVVNCNNANNCANNCNNANCNNNNNCNBVVVNCNNNNCNNNNNCNNNNNCNNNNNNCNNNNNCNNNNNCNCNCNNVVVVCNNNANNCNNAN",
"VVVVVVVVCNNNNNCNNNCNCNNNNCNNNCNCVVVVVVVVCNNNNNCNNNCNCNNNNCNNNCNCVVVVCNNNNCNCCNNNNCNNNCNCNCNASNNNNNCNNNNACNCNCNNAVVVVNCuBNNCNCNNN",
"VVVVVVVVNNANNCNCNCNCNCNCCNANANCNVVVVVVVVNNANNCNCNCNCNCNCCNANANCNVVVVNSNNSNCNNCNSCNANANCNCNCNNNANNCNCNCNNNCNCNCNNVVVVCNNBNCNCNCNC",
"uuBuuBuuNNNNuuBuNNNNNNNNNNNNNNNNuuBuBBuBNNNNuuBuNNNNNNNNNNNNNNNNuBuBuuNNNNNNNNNNNNNNNNNNNNNNNNNNNNNNNNNNNNNNNNNNBuBuBuBuNNNNNNNN",
"BBuBBuuBNNNNNBuBNNNNNNNNNNNNNNNNBBuBuuuuNNNNNBuBNNNNNNNNNNNNNNNNBuBuuBuuNNNNNNNNNNNNNNNNNNNNNNNNNNNNNNNNNNNNNNNNuBuBBuuBNNNNNNNN",
"tubbutuubbbutBbbNtNtNtNNNtNtNtNttuubBtuBbbbutBbbNtNtNtNNNtNtNtNtuBuBBuBBbbbbutNuNtNtNtNtNNNNNNNNNNNNNNNNutNNbbbbuuubtubbNNNNuBNN",
"utbbbuuBbbbtutbbtNtNtNuNtNtNtNtNuttutuuubbbtutbbtNtNtNuNtNtNtNtNuuuuututbbbutBuNtNtNtNtuNuNuNtNtuNNNbbbutBuNbbbbuBtuutbbtBtuuuBN",
"bbbbuutubbbbuutuNtNtututNtNtututbbbbuutubbbbuutuNtNtututNtNtutututuuutuubbtutubbututNtutNtutNtutNtututNttubbbbtuutututuuutututub",
"tttttttttttttttttttttttttttttttttttttttttttttttttttttttttttttttttttttttttttttttttttttttttNtutNtuttttttttuubbbbuutttttttttttttttt",
"uuuuuuuuuuuuuuuuuuuuuuuuuuuuuuuuuetuueueuuuuuuuuuuuuuuuuuuuuuuuutuuetuueuuuuuuuuuuuuuuuuutueutueutueueutueuetuteuuuuuuuuuuuuuuuu",
"ututeueuututeueututueueututueueuetuteueuututeueututueueututueueuutetuteututuututeueuututtueutueutueueutueueuuteuutututeuutututut",
"teueueueteueueueueueueueueueueueueueueueteueueueueueueueueueueueteueueueueueteueueueueueueueueueueueueueueueueueteueueueueueteue",
"eueueueueueueueueueueueueueueueueueueueueueueueueueueueueueueueueueueueueueueueueueueueueueueueueueueueueueueueuuteueueueueueueu",
"eeeeeeeeeeeeeeeeeeeeeeeeeeeeeeeeeeeeeeeeeeeeeeeeeeeeeeeeeeeeeeeeeeeeeeeeeeeeeeeeeeeeeeeeeeeeeeeeeeeeeeeeeeeeeeeeeeeeeeeeeeeeeeee",
"eeeeeeeeeeeeeeeeeeeeeeeeeeeeeeeeeeeeeeeeeeeeeeeeeeeeeeeeeeeeeeeeeeeeeeeeeeeeeeeeeeeeeeeeeeeeeeeeeeeeeeeeeeeeeeeeeeeeeeeeeeeeeeee",
"yyyy0y0yyyyyyyyyyyyyyyyyyyyy0y0yyyyyyyyyyyyy0y0yyyyy0y0yyyyyyyyyeeeeeeeeeeeeeeeeyy0y0yy0yby0yyyyy0yy0y0yyy0y0yy0yyyyyy0y0yy0yyyy",
"00000y0y000000000000000000000y0y0000008000000y0y00000y0y00000000e00e0ee00e0ee00e0y0y00y000y00000y00y0y000y0y00y000000y0y00y00000",
"0yy0y000000y0yy0000y0yy00yy0y000000y0y0y0yy0y0000yy0y000000y0yy0e0e0e0e0e0e0e0e000y0yy000y000y0y0000y0y000y0yy00000y00y0yy00000y",
"0000y0y00y0y00000y0y00000000y0y00y0y000y0000y0y00000y0y00y0y00000e0e0e0e0e0e0e0ey000000y000y0y000yy000y0y000000yyy00y000000yyy00",
"00000000000000000000000000000000000000000000000000000000000000000000000000000000000000000000000000000000000000000000000000000000",
"00000000000000000000000000000000000000000000000000000000000000000000000000000000000000000000000000000000000000000000000000000000",
"00000000000000000y00y0000y00y80800000000000080008y00000000000000000000000000000000000000080y000800000000000000000000000000000000",
"00000000000000088q88qq888qq8qq880000000088y8y8888qq88y880000000000000000qqqqqqqq000000088y88888y00000000000000000000000000000000",
"0800999999999999999999999999999909999999999999990099999999999999999999990q099999009999999999999909999999999999999999999899999999",
"88889888999999999999999998999999999999999899999999999999989999999999999903039999889999999999999999990899999908998888888899999999",
"8888888888888888888888888888888888888888888888888888888888888888888888880q6qq696888898888888888888888888888888888888888888888888",
"888888888888888888888888888888888888888888888888888888888888888888888888qqq66060888888888888888888888888888888888888888888888888",
"888888888888888888819918888888888888888888888888811898188888888888888888886906q9881118888888888888888888888888888888888888888888",
"66681866188881881188666666668188668<666688181881888818188818188166666666669666661888881166666666198881181988811866668<6618819188",
"668<8166888881818888889186<86681668818668188888818818888818888886866868869966669888881896866866888888888888888886666881888881818",
"188189661111818111111181<8181<811<1819118111111811811111811111181611611111616166111181611611611611111111111111116666188811181811",
"11811188118111816161161811181811881181118111881161611618111881111618111819116161911811181611611111181891169111619811181111811181",
"8<818111181181811119611918111818111811818181111811196119181111816118181161161916811818116996698888111116611669161118188818118181",
"18118111118818111991116181811111111818111181111819111161118111111611818116611611111181816161191111818111196116611118111111881811",
"11181111811111186119911611818111881118111111111161699116118111116191118119166191188111811616611618118111111191161111811181111118",
"11<<1111<<<<1111>6>>>6>611<<1111<<<<11111<<<111111111>6311<<1111111<111111111163111<1111111111111111<<111111111111<<<1<111<<1111",
"<<<<;<;<;<;<11<<>>>>>>>;<<<;<;<;<<;<;<;<<<<<11<1>>>>>>>;<1;<<<;<<;<;<<<<>>>>>>;;<;<;<<<<<<<<<114<<<<<;;<1<<<<;;<11<<;<<;;<;<11<<",
"<-1<<;<;<;<;<;<<>>>>>>;1<<;<;<;<<;<;<;<;<;<;<;<<>>>>>>;2<<;;<<;;;<;<;<;<>>>>>>;2;<;<;<;<;<;<;<;1;<;<;<;<;<;<3<;;<<<;<;<<<;<;<;<;",
"<<1<;<;<;<;<;<;<>>>>>>3;<;<;<;<;;<;<;<;<;<;<;<<<>>>>>>;;<<<<<;<<<;<;<;<;>>>>>>;;<;<;<;<;<;<;<;3;<;<;<;<;<;<;;;2;<<;<;<;<;<;<;<;<",
"444,4,,,<;222222322222322222222244444222<<,,444422222222222;223><44422,,42222222;422222222223222<4,,444422222222222;223><;222222",
"22424222;<222222>>2222;;2222222222222222-<22222233333333222;222>;<22222222222222<;2222222222;;22<;22422222222222222;222>24222222",
"2,,,2,,,222,,,,,;;;,;,,;,,,,,,,,,,,,,,226222,,,,,,,,,,,,;;,,;;,;;2-6,,,,,,2,,,,,3-22;223;3;;,,;;-222,,2,,,,,,,,,;;,,;;,,;;;;;;;;",
",,,,,,,,2;;2,,,,,,,,2,,,,,,,,,,,,,,,,,2242;2,,,,,,,,,,,,22,32;,,2222,,,,,,,,,,,,322;222323-2,,22622;,,,,,,,,,,,,22,32;,,;22;2;22",
",,,,2;2,2332,,,,;;2,,,33,,,,2,,,,,,,2;23-322,,,,223,322;,,,,;;2,2-;22,22,,,,,,3,2222,,3-2;2;22;;,,,2,,,,2,,,,,2;,,,,3;2,;22;,,,,",
",,,,22,,2-32,,,,>>,:;,,>,,,,;2,,,,,,223-32;2,,,,23,,-;2;,,;;>>,:3322,,22,,22,,3222;2,,32;;;;,,>;,,,2,,,,22,,,,2;,,;;>3;>;;;;,,;;",
"y0quy0y0yy0uu00qbyyb000uu00q0y0yqyqyy00yuyy0yqqyu00Buyyyyy00byyyyyyq00y0q0yy00yuq0yy00yuyyyB0yyy00yy0yqy0yy000yyyy00b0u00yyyyy00",
"uyyuyyyyB0tttu0B0c00ycb0tu0BB0Byuyyyyyuyyyyyuyyu0b00b0cc00bc0c00uyyyyyuyuyB00Bu0bybc0Bu00c000c0cyy0yyyqyB0yB0Bcb00bc0b0cb0cc00yc",
"0bbkbkbkk0kbkkk0kbkkkykbk0kkykykkbkkVkkVkk0kk0kbbkccccccbkccccccccccc0kbccccccc0cccccckbcccccccc0cccccccccccccccccccbkcccccccccc",
"klxxxxxxkkkkkkkkxxbkklkkxxxxxxkkklkbxkxxkkkkkkkkkkkkkkkkkkkkkkkkkkkklkkkkkkkkkkkkkkkkkkkkkkkkkkkklkkkkkkkkkkkkkkkkkkkkkkkkkkkkkk",
"llllnxxnllllxlllxnxnllllllllllxlllllxlllnlllnnnnllllllllllllllllllllllnlllllllllllllllnlnnnnnnnnlllllllllllllllllllllllnllllllll",
"MMMMMMMMmMMMMMmmmmmmmmmMMmmmmmMMmMMMMmmmUmlUmMMMMmmmmmmmmmnUMmmmmmmmmMmMmmmmmmmmmmmmmMmMmmmmmmmMMMmmmmmmmmmMmmmmmmmmmmmMMmmmmmmm",
"jjjjUUjjjjjjjjjjjjjjjjjjUjjjjUUjjjjjjjjjUUUUUjjjjjjjjUUjUUUjUUjjjUjjjjjjjUjjjjjjjUUjUjjjjUUUjjjjjjjjjjjjjjjjjjjUjjUUUUjjjjjjjUUj",
"ppppppppssssssppppaaaaaapaaappapssssssppppssssssppppiipppppppiiiipppppppipppppppiippppppiippppppppppipppppppppppiippppppppppiipp",
"dddddddddddddddddddddddddddddddddddddddddddddddddddddddddddddddddddddddddddddddddddddddddddddddddddddddddddddddddddddddddddddddd",
"!!!!!!!!QQQQQQQQQQQQQQQQ!QQQQQQQQQQQQQQQQQQQQQQQQQQQQQQQQQQQQQ!!QQQQQQQQQQQQQQQQQQQQQQQQQQQQQQQQQQQQQQQQQQQQQQQQQQQQ!QQQQQQQQQQQ",
"////^^//////////^^^^^^^^////////^/////////^^//^^////^^//^^^/////^^^^^^^^^^^^^^^^^^^^^^^^^^^^^^^^^^^^^^^^^^^^^^^^^^^^^^^^^^^^^^^^",
"~~~~~~~~~~~~~~~~~~~~~~~~~~~~~~~~~~~~~~~~~~~~~~~~~~~~~~~~~~~~~~~~~~~~~~~~~~~~~~~~~~~~~~~~~~~~~~~~~~~~~~~~~~~~~~~~~~~~~~~~~~~~~~~~",
"hhhhhhhhhhhhhhhhgggghhhhhffhhhhhhhhhhhhhgghhhhhhhhhhhhhhgghhhdhhhhhhggdhhhhhhggghhhhhhhhhhhhhhhhhhhhhhhhhhhhhhhhhhhhhhhhhhhhghhd",
"iiipiippiiiiiiiiiiiiiappaiiiiiiiiiipiiiiiiiiiiipiiiiiiipiiiiiippiiiiiiiiiiiipppiiiiiiiiiiiiiiiiiiiiiiiiiiiiiiiiiiiiiiiiiiiiiiiii",
"=%=%=%=%==%%==%%%=%==%=%==%O@@@@%=======%##%$%%%%*=%=%=%%%###%%=%%##&&O#%%%%%%%%@@@@@@@@%=====%$$$$$$$$$==%%==%=========%===&&&=",
"%=@&%=#=%%%%%%%%##=%O#%=%=%%O%####%#%#%#&&@&O$$O#%@@%=@@###O=O=O@@@#&@@&OOOOOOOO%%%%%%%%#%###%%$##########%O##%O%%%%%%%%=&#@&&@&",
"OOOOOOOOOOOOOOOO#O%&#O%O=%%$$%==OOOOOOOO@@@@$OO$&@@@&@@@#OO#O=O=@@#O#O@@OOOOOOOOOOOOOOOO%$$%$$$$OOOOOOOOO$O$O$O$%OO=O%=OOOOOOO@O",
"OOOOOOOO##O%O%O%O#OOO#O#O#o.$O$$.#.#O#OOOOOOOOOO&@@@@@@@##.#OOOO#OO#O#OOOOOOOOOO%%%%%%%%o.$O%O..########%%$%%%%%%%%O%O%%#######O",
" $ $ $ $ $ $ $ $OO$O$ $ $ $ $ $ $$ $$$ $$ $ $ $ $$$$$$$$$$$$$$$$O$$$$$$$$ $ $ $ $ $ $ $ $$$$$$$$$$$ $ $  $ $ $ $$$$$$$$$ $ $  $ ",
"$$$$$$$$$$$$$$$$%$$$$$$$$$$$$$$$$$$$$$$$$$$$$$$$ $ $ $ $ $ $ $ $$OO$ $$ $$$$$$$$$$$$$$$$$$$$$$$$ $ $$$$$$$$$$$$$$$$$$$$$$ $ $$$$",
"$ $ $ $ $$$$$$$$$O$O$ $ $$$$$$$$ $$$ $$$$$$$$$$$$$$$$$$$$$$$$$$$$$$$$$$$$ $ $ $ $$$$$$$$ $$ $  $$ $$ $$ $$$$$$$$$OO$ $$ $$$$$ $ ",
" $ $ $ $ $ $ $ $ $O$ $ $$ $  $ $ $   $   $ $ $ $ $ $ $ $ $ $ $ $O$O$ $ $ $ $ $ $ $ $$ $ $$$$$$$$ $ $ $ $ $ $ $ $$$$$$$$$ $ $$$ $",
"$ $ $ $         $ $ $ $  $ $$ $  $    $         $ $ $ $ $ $ $ $ $.$ $ $  $ $$ $ $ $  $ $        $  $ $          O        $      ",
"                                                                                         $ $ $ $                $O$O$ $        $",
"                                   $$            $$ $  $ $$ $  $$ $ $ $                                                 $  $$   ",
"                                 $    $                                                               $                         ",
"................................................................................................................................",
"................................................................................................................................",
"................................................................................................................................",
"................................................................................................................................",
"................................................................................................................................",
"................................................................................................................................",
"................................................................................................................................",
"................................................................................................................................"
};
