/* XPM */
static char *result[] = {
/* columns rows colors chars-per-pixel */
"32 32 6 1 ",
"  c #393637",
". c #323134",
"X c #463F3F",
"o c #3E3A3B",
"O c #4D4543",
"+ c #584C49",
/* pixels */
" . X X.  .oo.O o .oo.O o . X X. ",
"X+.X Xo XOoOoXo XOoOoXo X+.X Xoo",
" . O ooXo.O+ Xooo.O+ Xooo. O ooo",
". oO.OX  X  XOo  X  XOo   oO.OX ",
" X.  . O oOO   O oOO   O X.  . O",
"X+X.XOO+XX  .XX+XX  .XX+X+X.XOO+",
". . +X. .  oOo. .  oOo. . . +X. ",
"O.oo . OO XOXooOO XXXooOO.oX . O",
"o.oX o. o.XX.Oooo.oX o. o.XX.Ooo",
"X+.X Xo XOoOoXo X+.X Xo XOoOoXo ",
" . O ooXo.O+ Xooo. O ooXo.O+ Xoo",
". oO.OX  X  XOo   oO.OX  X  XOo ",
" X.  . O oOO   O X.  . O oOO   O",
"X+X.XOO+XX  .XX+X+X.XOO+XX  .XX+",
". . +X. .  oOo. . . +X. .  oOo. ",
"O.oX . OO XXXooOO.oo . OO XOXooO",
"o.XX.Oooo.oX o. o.oX o. o.XX.Ooo",
"OOoOoXo X+.X Xo o+.X Xo XOoOoXo ",
"o.O+ Xooo. O ooXo. O ooXo.O+ Xoo",
".X  XOo   oO.OX   oO.OX  X  XOo ",
" oOO   O X.  . O X.  . O oOO   O",
"XX  .XX+X+X.XOO+X+X.XOO+XX  .XX+",
".  oOo. . . +X. . . +X. .  oOo. ",
"O XXXooOO.oX . OO.oo . OO XOXooO",
"o.oX o. o.XX.Oooo.oX o. o.XX.Ooo",
"X+.X Xo XOoOoXo X+.X Xo XOoOoXo ",
" . O ooXo.O+ Xooo. O ooXo.O+ Xoo",
". oO.OX  X  XOo   oO.OX  X  XOo ",
" X.  . O oOO   O X.  . O oOO   O",
"X+X.XOO+XX  .XX+X+X.XOO+XX  .XX+",
". . +X. .  oOo. . . +X. .  oOo. ",
"O. oo  +OoXOXooOO. oo  +OoXOXooO"
};
