/* XPM */
static char *result[] = {
/* columns rows colors chars-per-pixel */
"32 32 120 2 ",
"   c #322F33",
".  c #323134",
"X  c #393637",
"o  c #363238",
"O  c #3D3539",
"+  c #3F3A3B",
"@  c #40343F",
"#  c #473F3F",
"$  c #4A413F",
"%  c #453B40",
"&  c #4A3C49",
"*  c #4E4543",
"=  c #504340",
"-  c #564B45",
";  c #52454C",
":  c #5A4C49",
">  c #544553",
",  c #5D445C",
"<  c #665E4A",
"1  c #706651",
"2  c #7B6950",
"3  c #7C7252",
"4  c #624C60",
"5  c #704F6A",
"6  c #675566",
"7  c #6E556B",
"8  c #6F586E",
"9  c #7F5D6B",
"0  c #7A5375",
"q  c #745A72",
"w  c #7A5579",
"e  c #7A607A",
"r  c #835A78",
"t  c #897967",
"y  c #907D6A",
"u  c #8A6879",
"i  c #958760",
"p  c #968963",
"a  c #AA996E",
"s  c #B49F69",
"d  c #A78D72",
"f  c #B39A7B",
"g  c #BDA76F",
"h  c #BEAE74",
"j  c #C2AC72",
"k  c #CCB678",
"l  c #CFB87C",
"z  c #D3BB75",
"x  c #D1BC7B",
"c  c #815581",
"v  c #895D89",
"b  c #8E618E",
"n  c #976886",
"m  c #9C7887",
"M  c #926492",
"N  c #976996",
"B  c #9B6D97",
"V  c #9B6C9B",
"C  c #987097",
"Z  c #9E789D",
"A  c #A47396",
"S  c #A0739D",
"D  c #A273A2",
"F  c #A77AA7",
"G  c #A879A5",
"H  c #AC7CAB",
"J  c #B17FAD",
"K  c #B07FB0",
"L  c #B79487",
"P  c #BFBB9C",
"I  c #A782A6",
"U  c #A882A3",
"Y  c #AD81AA",
"T  c #B184AC",
"R  c #B28CAE",
"E  c #B384B3",
"W  c #B789B6",
"Q  c #BA8DB4",
"!  c #B887B8",
"~  c #BD8DBD",
"^  c #B591B1",
"/  c #BB90B1",
"(  c #BE90BE",
")  c #D0B681",
"_  c #C08EBF",
"`  c #C090BE",
"'  c #C99CBF",
"]  c #DFCC87",
"[  c #D6C78F",
"{  c #E1CB86",
"}  c #E6D28B",
"|  c #ECD58D",
" . c #E6CF91",
".. c #EFD793",
"X. c #EFD991",
"o. c #F0DC92",
"O. c #F1DC9A",
"+. c #C08FC0",
"@. c #C393C2",
"#. c #C897C6",
"$. c #CA99C7",
"%. c #C896C8",
"&. c #CC9BCB",
"*. c #CBA0C5",
"=. c #CFA0CC",
"-. c #D2A2CC",
";. c #D8AACE",
":. c #D5A5D3",
">. c #D8A7D5",
",. c #DAAAD5",
"<. c #DEADD9",
"1. c #DFB1D7",
"2. c #E0AFDB",
"3. c #E3B3DD",
"4. c #E9B8DF",
"5. c #E5B5E0",
"6. c #E7B8E2",
"7. c #ECBBE5",
"8. c #F4C3EC",
"9. c #FACAF2",
/* pixels */
"X . X # X $ . X X . + + . * X + X . + + . * X + X . X $ X *   X ",
"# : . $ X % + X # * + * + $ + X $ * + * + $ O X * :   $ X + + + ",
"X . X * X + + $ + . * : X $ + X X . * : X $ + + + . X * X X + + ",
". X + * . * $ X X # X X # 8 ,.,.-.&.q X $ * + X o X + *   * * X ",
"X % . X X . X * X + * $ ^ 6.3.1.=.$.#.I O X X * X % . X X   . * ",
"% - * . # * * : $ # X *.9.8.3.P [ / +.+.+.% % : * - * . * * * : ",
". X . X - * . X . X 6 8.9.;.&.O.a Q ~ ~ ! C   X   . . X - * . X ",
"* . + O X . X * * X U <.;.:.$.( ~ ( ! S V V & * - . + % X . X * ",
"+ . O * X + . X + o =.,.=.$.@.+.J ~ V M M M , X h X $ + . * + + ",
"* - . % . * + X * ; %.( +.H B ~ ~ H M M M N b X p p + * + * + X ",
"X . X * . + X * +   8 n A +.+.~ H M S D F S d % < h * : X $ + + ",
". X O *   * * X X $ o e @.+.E w t J W E m x g X 1 ] X X + * + X ",
"X *   X X . X * X + * * X X X * y ..| X.} k s * 3 X.* * X X X * ",
"* - $ . * * * : + $ X X   * # I ' ..o.| { j 2 : 3 z . X . * * - ",
"  o . . - *   X . X X + $ R 8.<.#.Q ) | l i . X  .X.. + * +   o ",
"*   + * o . . * * X ; I 1.5.6.,.#._ ~ H N , X * L f + * * + + * ",
"+ . $ % . * + + % Z $.&.=.=.&.&.@._ ! V v O   > +.E % % . * + + ",
"* * + * + % X I $.+.( +.@.@.@.+._ ~ V M %.+.K F +.K O * + * + X ",
"+ . * - + # 6 5.3.3.<.>.&.#.~ W W ~ _ #.&.%.#.@.K ! H - X # + + ",
". $ X X # * $.5.8.9.9.9.9.7.6.5.2.,.-.=.$.#.#.~ ~ S H   # * + X ",
"X + * * % #.#.*.,.<.5.5.5.3.<.>.-.-.$.$.$.@.+.+.~ b N # X X X * ",
"# % X + &.( W @.%.$.&.&.&.&.$.$.#.%.#.@.+.+.+.! F c b 4 . # # : ",
". X X 8 :.<.&.~ W ~ +.#.@.@.@.@.+.~ ~ ` ~ ! K V M v E ! ; + . X ",
"* X * e <.4.8.8.6.<.:.$.W ~ ! ! W E H G V N C T H ~ ~ ~ , + + * ",
"+ . + 7 &.R 6.9.9.9.9.8.6.5.3.<.,.=.&.&.$.H %.#.@.E ~ E , * + + ",
"% : . % ~ N &.:.<.3.6.6.5.3.<.>.:.=.&.$.$.E +.+.+.N ! V % % + X ",
"X . X * & V @.#.$.$.&.&.&.&.&.&.$.$.#.#.@.H ! ~ ~ v N 5 + % + + ",
". X + * . * q Y ~ +.` ` @.@.@.@.+.( +.~ ~ H K D N 0 % o # * + X ",
"X $ . X X o X $ # ; u Z H T W W E E F D V r 9 : X X * * X X X * ",
"$ - $ . % = * : $ $ X X . # @ $ O * @   # * * : % * X X . # $ : ",
". o o X : $ o X . X X + * @ . X . X . X : $ . X . X X + * + . X ",
"* . X + + X X - $ + $ $ $ # + * * . X # + X X : * + # * # + + * "
};
