/* XPM */
static char *result[] = {
/* columns rows colors chars-per-pixel */
"32 32 23 1 ",
"  c #B37D45",
". c #CD9574",
"X c #915B26",
"o c #483C22",
"O c #865625",
"+ c #433820",
"@ c #38341F",
"# c #966029",
"$ c #8B5825",
"% c #654922",
"& c #A87741",
"* c #996330",
"= c #6C4F26",
"- c #B8834D",
"; c #D4952B",
": c #8F5D2A",
"> c #C58E6B",
", c #554221",
"< c #C36B34",
"1 c #AF5D32",
"2 c #3B351F",
"3 c #B9844E",
"4 c #B9834D",
/* pixels */
"%=&          &==&  -         &=%",
"%= 3-33333333 ==&----33333333 =%",
"%=>..........>==&4...........>=%",
",=>..........>=%&->..........>=,",
"2o:**********:oo& ***********:o2",
"@+OXOO$$$$$$XO+o& #XOO$$$$$$XO+@",
"@+OOoo%%%%%=$O+o& #Ooo%%%%%=$O+@",
"o,$Oo+%%%%==$O+o& #Oo+%%%%==$$,o",
";;#$%%O$$:&&#O+o& #$%%O$$:&&##;;",
";;#$%%$XX#  #O+o& #$%%$XX#  ##;;",
"<<#$%%$XX#  #O+o& #$%%$XX#  ##<<",
"11X$%%$XX#  #O+o& #$%%$XX#  #X11",
"o,$$%%$XX#  #O+o& #$%%$XX#  #O,o",
"@+O$%%:##*  #O+o& #$%%:##*  #O+@",
"@+O$%=&   .>*O+o& #$%=&   .>*O+@",
"@+O$==&  ->>*O+o& #$==&  ->>*O+@",
"@+OX$$####**XO+o& #X$$####**XO+@",
"@+OXOO$$$$$$XO+o& #XOO$$$$##XO+@",
"@+OOoo%%%%%=$O+o& #Ooo%%%=&&#O+@",
"@+OOo+%%%%==$O+o& #Oo+%%%=& #Oo2",
"@+O$%%O$$:&&#O+o& #$%%O$$:  #$%,",
"o,$$%%$XX#  #O+o& #$%%$XX#  #$==",
";;#$%%$XX#  #O+o& #$%%$XX#  ##;;",
";;#$%%$XX#  #O+o& #$%%$XX#  ##;;",
"<<#$%%$XX#  #O+o& #$%%$XX#  ##<<",
"11X$%%:##*  #O+o& #$%%:##*  #X11",
"o,$$%=&   .>*O+o& #$%=&   .>*O,o",
"@+O$==&  ->>*O+o& #$==&  ->>*O+@",
"@+OX$$####**XO+o& #X$$####**XO+@",
"@+OOOOOOOOOOOO+o*&$OOOOOOOOOOO+@",
"@2++++++++++++@2oo++++++++++++@@",
"@@@@@@@@@@@@@@@@@@@@@@@@@@@@@@@@"
};
