/* XPM */
static char *result[] = {
/* columns rows colors chars-per-pixel */
"32 32 6 1 ",
"  c #030202",
". c #080505",
"X c #010608",
"o c #47231B",
"O c #593C3C",
"+ c #875454",
/* pixels */
"ooo.XXXXXXXXXXXXXXXXXXXXXXXX.ooo",
"o+o.XXXXXXXXXXXXXXXXXXXXXXXX.oo+",
".oo.XXXXXXXXXXXXXXXXXXXXXXXX.+oo",
"o...XXXXXXXXXXXXXXXXXXXXXXXX....",
"ooo.XXXXXXXXXXXXXXXXXXXXXXXX.ooo",
"o+o.XXXXXXXXXXXXXXXXXXXXXXXX.ooo",
"....XXXXXXXXXXXXXXXXXXXXXXXX.oo.",
"+oo.XXXXXXXXXXXXXXXXXXXXXXX ...O",
"o+o.XXXXXXXXXXXXXXXXXXXX    .oo+",
"ooo.XXXXXXXXXXXXXXXXXXXX    .o+o",
"o...XXXXXXXXXXXXXXXXXXXXXXX ..oo",
".++.XXXXXXXXXXXXXXXXXXXXXXXX.o..",
"oo+.XXXXXXXXXXXXXXXXXXXXXXXX.ooo",
"ooo.XXXXXXXXXXXXXXXXXXXXXXXX.ooo",
"..o.XXXXXXXXXXXXXXXXXXXXXXXX.ooo",
"o+..XXXXXXXXXXXXXXXXXXXXXXXX.o..",
"ooo.XXX   XXXXXXXXXXXXXXXXXX..oo",
"ooo.XXXX XXXXXXXXXXXXXXXXXXX.oo+",
"..o.XXXX XXXXXXXXXXXXXXXXXXX.ooo",
"oo..XXX   XXXXXXXXXXXXXXXXXX....",
"ooo.XX XXX XXXXXXXXXXXXXXXXX.ooo",
"ooo.XX XXX XXXXXXXXXXXXXXXXX.ooo",
"....XXX   XXXXXXXXXXXXXXXXXX.+o.",
"ooo.XXXXXXXXXXXXXXXXXXXXXXXX...o",
"ooo.XXXXXXXXXXXXXXXXXXXXXXXX.ooo",
"+oo.XXXXXXXXXXXXXXXXXXXXXXXX.oo+",
"+...XXXXXXXXXXXXXXXXXXXXXXXX..oo",
".oo.XXXXXXXXXXXXXXXXXXXXXXX .o..",
"ooo.XXXXXXXXXXXXXXXXXXXX    .ooo",
"oo+.XXXXXXXXXXXXXXXXXXXX    .oo+",
"..+.XXXXXXXXXXXXXXXXXXXXXXX ..o+",
"oo..XXXXXXXXXXXXXXXXXXXXXXXX.o.."
};
