/* XPM */
static char *result[] = {
/* columns rows colors chars-per-pixel */
"32 32 201 2 ",
"   c #0A0909",
".  c #0F0C0C",
"X  c #120202",
"o  c #120505",
"O  c #100707",
"+  c #1B0000",
"@  c #1D0000",
"#  c #1C0202",
"$  c #1C0909",
"%  c #1E1D1D",
"&  c #1D1C1E",
"*  c #280D0E",
"=  c #330000",
"-  c #350000",
";  c #3E0505",
":  c #300909",
">  c #370808",
",  c #241112",
"<  c #281414",
"1  c #2E1716",
"2  c #2F1617",
"3  c #231919",
"4  c #211C1C",
"5  c #361213",
"6  c #3C1918",
"7  c #222020",
"8  c #272323",
"9  c #262727",
"0  c #282524",
"q  c #282727",
"w  c #2B2828",
"e  c #2C2928",
"r  c #2F2928",
"t  c #2C2A2B",
"y  c #2E2A2A",
"u  c #2E2B2C",
"i  c #2F2B2C",
"p  c #2C2C2D",
"a  c #2E2C2D",
"s  c #322222",
"d  c #342B2A",
"f  c #302B2C",
"g  c #312D2E",
"h  c #312E2E",
"j  c #382A29",
"k  c #302F31",
"l  c #302F32",
"z  c #323030",
"x  c #323031",
"c  c #313033",
"v  c #343132",
"b  c #363132",
"n  c #353233",
"m  c #373233",
"M  c #323134",
"N  c #363334",
"B  c #373435",
"V  c #373535",
"C  c #383230",
"Z  c #3C3232",
"A  c #383536",
"S  c #393637",
"D  c #383737",
"F  c #3B3637",
"G  c #3D3434",
"H  c #3C3738",
"J  c #373939",
"K  c gray22",
"L  c gray23",
"P  c #3D3839",
"I  c #3E393A",
"U  c #3F3A3B",
"Y  c #3D3C3D",
"T  c #3E3E3E",
"R  c #4C0000",
"E  c #4E0B0B",
"W  c #580101",
"Q  c #5B0707",
"!  c #550B0B",
"~  c #500E0E",
"^  c #5A090A",
"/  c #750202",
"(  c #700707",
")  c #720707",
"_  c #740606",
"`  c #790707",
"'  c #7C0404",
"]  c #7E0505",
"[  c #423735",
"{  c #493131",
"}  c #433A38",
"|  c #433B39",
" . c #413A3A",
".. c #423A3A",
"X. c #443C3A",
"o. c #433C3C",
"O. c #443C3C",
"+. c #463E3E",
"@. c #473F3F",
"#. c #703838",
"$. c #49413F",
"%. c #424141",
"&. c #424343",
"*. c #474443",
"=. c #4B4341",
"-. c #4C4341",
";. c #4F4340",
":. c #4D4442",
">. c #4E4543",
",. c #4C4A4A",
"<. c #514542",
"1. c #524643",
"2. c #584A47",
"3. c #5A4C49",
"4. c #575656",
"5. c gray34",
"6. c #5D5D5D",
"7. c #676565",
"8. c #686868",
"9. c #7B6565",
"0. c #717171",
"q. c #727373",
"w. c #737474",
"e. c #767676",
"r. c #797979",
"t. c #820505",
"y. c #900202",
"u. c #9C0202",
"i. c #980404",
"p. c #990E0E",
"a. c #A20202",
"s. c #A80202",
"d. c #A80303",
"f. c #B00808",
"g. c #C70303",
"h. c #C00404",
"j. c #CA0303",
"k. c #CD0303",
"l. c #C80404",
"z. c #C80606",
"x. c #D20404",
"c. c #D50505",
"v. c #D80404",
"b. c #DF0505",
"n. c #E10303",
"m. c #E30404",
"M. c #E70404",
"N. c #E80404",
"B. c #ED0404",
"V. c #EF0404",
"C. c #F10404",
"Z. c #F40404",
"A. c #F50404",
"S. c #F60404",
"D. c #F70404",
"F. c #F60505",
"G. c #F80404",
"H. c #F90404",
"J. c #F90505",
"K. c #FA0404",
"L. c #FB0505",
"P. c #FC0404",
"I. c #FC0505",
"U. c #FE0505",
"Y. c #858484",
"T. c #868585",
"R. c #8B8989",
"E. c #8B8B8B",
"W. c #949090",
"Q. c gray58",
"!. c #9C9999",
"~. c #AFB0B0",
"^. c #B2B2B2",
"/. c gray73",
"(. c gray",
"). c gray75",
"_. c gray78",
"`. c gray81",
"'. c #CFD0D0",
"]. c gray85",
"[. c gray87",
"{. c #DEDFDF",
"}. c #E1E2E2",
"|. c #E2E2E2",
" X c gray90",
".X c gray91",
"XX c #E9E9E9",
"oX c #EAEAEA",
"OX c gray92",
"+X c gray93",
"@X c #EFEFEF",
"#X c #EFF0F0",
"$X c #F3F3F3",
"%X c #F4F4F4",
"&X c gray98",
"*X c #FAFBFB",
"=X c #FBFBFB",
"-X c gray99",
";X c #FCFDFD",
":X c #FEFEFE",
">X c white",
/* pixels */
"S M S @.S @.M S S M U U M >.S U S M U U M >.S U S M S @.S @.M S ",
"@.3.M @.S @.U S @.>.U >.U @.U S @.>.U >.U @.U S @.3.M @.S @.U U ",
"S M S >.S U U @.U M >.3.S @.U U U M >.3.S @.U U U M S >.S U U U ",
"M S U >.M >.@.S S @.S S @.>.U S S @.S S @.>.U S S S U >.M >.@.S ",
"S @.M S S M S >.S U >.>.S S S >.S U >.>.S S S >.S @.M S S M S >.",
"@.3.@.M @.>.>.3.@.@.S S M @.@.3.@.@.S S M @.@.3.@.3.@.M @.>.>.3.",
"M S M S 3.@.M S M S S U >.U M S M S S U >.U M S M S M S 3.@.M S ",
">.M U U S M S >.>.S @.>.@.U U >.>.S @.@.@.U U >.>.M U @.S M S >.",
"U M U @.S U M S U M @.@.M >.U U U M U @.S U M S U M @.@.M >.U U ",
"@.3.M @.S @.U S @.>.U >.P  .b f G <.k +.S @.U S @.>.U >.U @.U S ",
"S M S >.S U U @.U M -.[ 2 ~ ( ` _ ^ 5 d v U U @.U M >.3.S @.U U ",
"M S U >.M >.@.S S O.4 Q h.N.Z.D.A.B.x.] , X.@.S S @.S S @.>.U S ",
"S @.M S S M S >.n 3 / V.U.U.U.U.U.U.U.K.a.* x >.S U >.>.S S S >.",
"@.3.@.M @.>.>.2.s t.F.U.U.U.U.U.U.U.U.U.J.s.1 1.@.@.S S M @.@.3.",
"M S M S 3.@.M z E m.U.U.U.U.U.U.U.U.U.U.U.H.' 8 c S S U >.U M S ",
">.M U @.S M S j i.L.U.U.U.U.U.U.U.U.U.U.U.U.v.6 $.S @.>.@.U U >.",
"U M @.@.M >.I < j.U.U.U.U.U.U.U.U.U.U.U.U.U.C.! m M @.@.M >.U U ",
">.>.U >.U @.H : n.U.U.U.U.U.U.U.U.U.U.U.U.U.G.) Z >.U >.U @.U S ",
"U M >.3.S @.F $ d.V.I.U.U.P.b.f.z.S.U.U.P.Z.l.; g M >.3.S @.U U ",
"M @.S S @.>.H . X R y.g.M.c.#.W.9.p.m.k.u.W #   a @.S S @.>.U S ",
"S U >.>.S S A 0 6.V O + = > !.*X|.{ - @ o y q.e z U >.>.S S S >.",
"@.@.S S M @.@.} T.+X/.w.&.9 Y.oX'.K J 8.~.#X^.r o.@.S S M @.@.3.",
"M S S U >.U M v Y `.>X;X%X[.E.r.e.(.@X=X>X|.T w c S S U >.U M S ",
">.S @.@.@.U U :.C 5.+X>X>X:X$X XOX-X>X>X+X7.% =.>.S @.>.@.U U >.",
"U M U @.S U M S P & 4.].&X>X>X>X>X>X-X.X0.7 l S U M @.@.M >.U U ",
"@.3.M @.S @.U S @.-.i *.R.).{.XX}._.Q.,.q ..U S @.>.U >.U @.U S ",
"S M S >.S U U @.U M :.;.u h D %.L p t | B U U @.U M >.3.S @.U U ",
"M S U >.M >.@.S S @.S S @.>.H v N A U >.M >.@.S S @.S S @.>.U S ",
"S @.M S S M S >.S U >.>.S S S >.S @.M S S M S >.S U >.>.S S S >.",
"@.3.@.M @.>.>.3.@.@.S S M @.@.3.@.3.@.M @.>.>.3.@.@.S S M @.@.3.",
"M S M S 3.@.M S M S S U >.U M S M S M S 3.@.M S M S S U >.U M S ",
">.M S U U S S 3.>.U @.>.@.U U >.>.M S U U S S 3.>.U @.>.@.U U >."
};
