/* XPM */
static char *result[] = {
/* columns rows colors chars-per-pixel */
"32 32 167 2 ",
"   c black",
".  c gray1",
"X  c #050404",
"o  c #070606",
"O  c #0C0A04",
"+  c #0F0D05",
"@  c #090909",
"#  c #0A0909",
"$  c gray4",
"%  c #0C0B09",
"&  c #0C0B0B",
"*  c #0D0C0C",
"=  c #0E0D0C",
"-  c gray6",
";  c #1C150A",
":  c #0F0F10",
">  c #121111",
",  c #161313",
"<  c #181515",
"1  c #1C1817",
"2  c #25100A",
"3  c #251E0C",
"4  c #2C220E",
"5  c #2E270F",
"6  c #2F2313",
"7  c #24211F",
"8  c #342712",
"9  c #3F2D1F",
"0  c #3E3214",
"q  c #272321",
"w  c #232224",
"e  c #272526",
"r  c #272727",
"t  c #272629",
"y  c #2B2828",
"u  c #2A2829",
"i  c #2C2829",
"p  c #2E2C2C",
"a  c #312D27",
"s  c #312B2B",
"d  c #352F2E",
"f  c #36302F",
"g  c #3B382D",
"h  c #3F382F",
"j  c gray19",
"k  c #313030",
"l  c #303031",
"z  c #313031",
"x  c #313131",
"c  c #313032",
"v  c #333232",
"b  c #353233",
"n  c #343333",
"m  c #353333",
"M  c #363430",
"N  c #323134",
"B  c #373434",
"V  c #363435",
"C  c #393333",
"Z  c #3A3332",
"A  c #393637",
"S  c #3B3637",
"D  c #3D3634",
"F  c #3C3A32",
"G  c #3C3738",
"H  c #3E393A",
"J  c #3F3A3B",
"K  c #553F1F",
"L  c #72351F",
"P  c #433631",
"I  c #433C31",
"U  c #4C3E33",
"Y  c #4B3F36",
"T  c #413A39",
"R  c #403A3A",
"E  c #423B3B",
"W  c #433C3C",
"Q  c #443E3D",
"!  c #453E3E",
"~  c #473F3F",
"^  c #483E3A",
"/  c #513A34",
"(  c #57461C",
")  c #5B412D",
"_  c #49403F",
"`  c #48413F",
"'  c #524132",
"]  c #554E36",
"[  c #5C4D35",
"{  c #55443B",
"}  c #5F5335",
"|  c #6E5823",
" . c #6C5B23",
".. c #705A24",
"X. c #725B25",
"o. c #664933",
"O. c #644A36",
"+. c #654B37",
"@. c #674C38",
"#. c #644F3C",
"$. c #684D39",
"%. c #694E39",
"&. c #765836",
"*. c #795833",
"=. c #705038",
"-. c #6E623A",
";. c #726137",
":. c #4F4440",
">. c #4E4543",
",. c #554845",
"<. c #5A4C49",
"1. c #933A1A",
"2. c #883C26",
"3. c #805F39",
"4. c #985A30",
"5. c #8F602F",
"6. c #846436",
"7. c #8E6934",
"8. c #906533",
"9. c #906A35",
"0. c #906A38",
"q. c #96733B",
"w. c #987038",
"e. c #9E7639",
"r. c #A77F3A",
"t. c #A17D3C",
"y. c #C75D37",
"u. c #C85838",
"i. c #D47E3E",
"p. c #A28234",
"a. c #AA8F37",
"s. c #AC873D",
"d. c #B39339",
"f. c #BB963C",
"g. c #BF983D",
"h. c #C29B3F",
"j. c #AB8842",
"k. c #AD8840",
"l. c #BF9840",
"z. c #BC9845",
"x. c #B99E46",
"c. c #C29C40",
"v. c #C5A240",
"b. c #C8A040",
"n. c #CCA443",
"m. c #C9A941",
"M. c #CFA944",
"N. c #D1A943",
"B. c #D0AA44",
"V. c #D0A846",
"C. c #D7AF45",
"Z. c #D9B145",
"A. c #DDB547",
"S. c #DAB248",
"D. c #E1B948",
"F. c #E2BA48",
"G. c #EFB94B",
"H. c #E9C14B",
"J. c #E8C34B",
"K. c #F5C84E",
"L. c #F5CD4F",
"P. c #F7CE4F",
"I. c #F8D050",
"U. c #E5C975",
"Y. c #F3D67A",
"T. c #BCBCC9",
"R. c #EBE3D8",
/* pixels */
"A N A ~ A ~ N A A N J J N >.A J A N J J N >.A J A N A ~ A ~ N A ",
"~ <.N ~ A ~ J A ~ >.J >.J ~ J A ~ >.J >.J ~ J A ~ <.N ~ A ~ J J ",
"A N A >.A J J ~ J N >.<.A ~ J J J N >.<.A ~ J J J N A >.A J J J ",
"N A J >.t d s e u ~ A A ~ >.J A A ~ A A ~ >.J u e e y D N >.~ A ",
"A ~ N A >       $ J >.>.A A A >.A J >.>.A A A =       > A N A >.",
"~ <.~ N , . j j r   b A N ~ ~ <.~ ~ A A N E   r j j . : ~ >.>.<.",
"N A N A 1 . j j g  .7 i >.J N A N A A J f q  .g j j . > <.~ N A ",
">.N J J > . j j ] I.+ < ~ J J >.>.A ~ ~ , + I.] j j . , A N A >.",
"J N J ~ A S   m.I.I.I.a.  =.=.=.=.=.=.  a.I.I.I.m.  E ~ N >.J J ",
"~ <.N ~ A E   d.F.I.I.v.K t.k.z.z.k.t.K v.I.I.F.d.  S >.J ~ J A ",
"A N A >.A S   p.N.I.I.S.w.b.A.I.I.A.b.w.S.I.I.N.p.  _ <.A ~ J J ",
"N A J >.N >.~ $ 3 b.L.I.I.I.I.I.I.I.I.I.I.I.I.5 $ ~ A A ~ >.J A ",
"A ~ N A A N A Z a } M.D.I.I.I.I.I.I.I.I.D.B.-.h u J >.>.A A A >.",
"~ <.~ N ~ >.>.,.T F c.Z.I.I.I.I.I.I.I.I.Z.c.F :.W ~ A A N ~ ~ <.",
"N A N A <.~ N $ 5 I.I.I.I.I.I.I.I.I.I.I.I.I.I.5 @ A A J >.J N A ",
">.N J ~ v j x # 5 I.I.Y.R.I.I.I.I.I.I.R.Y.I.I.5 = A ~ >.~ J J >.",
"J N ~ ~ l k I % 4 G.P.U.T.I.I.I.I.I.I.T.U.P.G.4 & N ~ ~ N >.J J ",
">.>.J >.n M w.; 2 u.K.a.  I.I.I.I.I.I.  a.K.u.2 * >.J >.J ~ J A ",
"J N >.<.v M w.9.5.1.y.i.J.I.V.e.e.V.I.J.i.y.1./ G N >.<.A ~ J J ",
"N ~ A A B M w.w.8.L 2.4.x.H.n.r.r.n.H.x.4.2.L P A ~ A A ~ >.J A ",
"A J >.>.v M w.w.6.j . - j b.b.b.b.b.b.j - . j ` A J >.>.A A A >.",
"~ ~ A A N ! j 6.0.=.h.s.=.j j j j j j =.s.h.=.=.$.~ A A N ~ ~ <.",
"N A A J >.H z &.*.9 g.l.j.U [ ;.;.[ U j.l.g.9 o.O.A A J >.J N A ",
">.A ~ ~ ~ J J %.)   f.C.I.=.q.b.b.q.=.I.C.f.  ) %.A ~ >.~ J J >.",
"J N J ~ A J N +.3.b.O     b.b.b.b.b.b.    O b.3.@.N ~ ~ N >.J J ",
"~ <.N ~ A ~ J Y #.q.X.....b.b.b.b.b.b.....| ( ' { >.J >.J ~ J A ",
"A N A >.A J J ~ ^ =.h.b.b.b.b.b.b.b.b.b.b.f.  C J N >.<.A ~ J J ",
"N A J >.N >.~ A p   7.r.b.j j j j j j     X ~ A A ~ A A ~ >.J A ",
"A ~ N A A N A >.m y 6 8 0 V V Q V R c e e w A >.A J >.>.A A A >.",
"~ <.~ N ~ >.>.<.~ ~ o . . ~ ~ <.~ <.~ N ~ >.>.<.~ ~ A A N ~ ~ <.",
"N A N A <.~ N A N A A J >.J N A N A N A <.~ N A N A A J >.J N A ",
">.N A J J A A <.>.J ~ >.~ J J >.>.N A J J A A <.>.J ~ >.~ J J >."
};
