/* XPM */
static char *result[] = {
/* columns rows colors chars-per-pixel */
"32 32 176 2 ",
"   c black",
".  c #010101",
"X  c gray1",
"o  c #040404",
"O  c #050404",
"+  c #070606",
"@  c #0C0A04",
"#  c #0F0D05",
"$  c #090909",
"%  c gray4",
"&  c #0C0B0B",
"*  c #0D0C0C",
"=  c #0E0E0F",
"-  c gray6",
";  c #110E0D",
":  c #110F0F",
">  c #1B140A",
",  c #0F0F10",
"<  c #121111",
"1  c #151211",
"2  c #161313",
"3  c #151515",
"4  c #161616",
"5  c #171617",
"6  c #1A1717",
"7  c #1C1817",
"8  c #191818",
"9  c #1B191A",
"0  c #1F1B1B",
"q  c #1C1B1D",
"w  c #26110A",
"e  c #261F0E",
"r  c #231911",
"t  c #201E1F",
"y  c #301B16",
"u  c #2E270F",
"i  c #302911",
"p  c #332B17",
"a  c #392F17",
"s  c #3D3115",
"d  c #3E3214",
"f  c #3C3118",
"g  c #221F20",
"h  c #262222",
"j  c #272526",
"k  c #272727",
"l  c #282526",
"z  c #2B2828",
"x  c #2E2C2C",
"c  c #2F2C2D",
"v  c #36302F",
"b  c #332F30",
"n  c gray19",
"m  c #303031",
"M  c #313131",
"N  c #323231",
"B  c #313033",
"V  c #313133",
"C  c #333232",
"Z  c #363330",
"A  c #353233",
"S  c #343333",
"D  c #353333",
"F  c #363430",
"G  c #323134",
"H  c #373434",
"J  c #373435",
"K  c #373535",
"L  c #393634",
"P  c #393637",
"I  c #3B3637",
"U  c #3C3839",
"Y  c #3D3839",
"T  c #3E393A",
"R  c #3F3A3B",
"E  c #482B16",
"W  c #433118",
"Q  c #433B36",
"!  c #473B34",
"~  c #4C3E33",
"^  c #423B3B",
"/  c #423C3B",
"(  c #453C39",
")  c #473F3F",
"_  c #4A3E3C",
"`  c #4D4119",
"'  c #56451D",
"]  c #59471C",
"[  c #5B491D",
"{  c #5E4C1E",
"}  c #614F1F",
"|  c #534323",
" . c #5B412D",
".. c #49403F",
"X. c #48413F",
"o. c #504036",
"O. c #554235",
"+. c #584437",
"@. c #554E36",
"#. c #5A423A",
"$. c #5A4639",
"%. c #5E483A",
"&. c #5F5335",
"*. c #675725",
"=. c #6C5B23",
"-. c #695927",
";. c #705A24",
":. c #654B37",
">. c #674C38",
",. c #664E3F",
"<. c #684D39",
"1. c #694E39",
"2. c #6A5434",
"3. c #705134",
"4. c #705038",
"5. c #4C4341",
"6. c #4E4543",
"7. c #524744",
"8. c #5A4C49",
"9. c #903818",
"0. c #805F39",
"q. c #B64E2E",
"w. c #927A2F",
"e. c #856231",
"r. c #846436",
"t. c #896637",
"y. c #8F6A37",
"u. c #856F39",
"i. c #966532",
"p. c #916C37",
"a. c #906A38",
"s. c #867439",
"d. c #9C7736",
"f. c #9E7837",
"g. c #96733B",
"h. c #987038",
"j. c #A17D3C",
"k. c #C45636",
"l. c #CB5F39",
"z. c #D77D3F",
"x. c #A28234",
"c. c #AA8F37",
"v. c #AC873D",
"b. c #B1893C",
"n. c #B28C3E",
"m. c #B88939",
"M. c #AF933B",
"N. c #BB963C",
"B. c #BE993F",
"V. c #C29B3F",
"C. c #B09744",
"Z. c #C8A040",
"A. c #CEA645",
"S. c #C9A941",
"D. c #D1A943",
"F. c #D7AF45",
"G. c #DDB547",
"H. c #D2B24A",
"J. c #DAB248",
"K. c #E5A446",
"L. c #E9C14B",
"P. c #EAC24C",
"I. c #EBC64E",
"U. c #EDC54C",
"Y. c #EEC64D",
"T. c #EFC74D",
"R. c #F1C94D",
"E. c #F1C94E",
"W. c #F5C84E",
"Q. c #F4CC4E",
"!. c #F5CD4F",
"~. c #F8D050",
"^. c #F7D159",
"/. c #F5D46F",
"(. c #F3D784",
"). c #E8E8F8",
/* pixels */
"P G P ) P ) G P P G R R G 6.P R P G R R G 6.P R P G P ) P ) G P ",
") 8.G ) P ) R P ) 6.R 6.R ) R P ) 6.R 6.R ) R P ) 8.G ) P ) R R ",
"P G P 6.P R R ) R G 6.8.P ) R R R G 6.8.P ) R R R G P 6.P R R R ",
"G P R 6.G 6.) P P ) P P ) 6.R P P ) P P ) 6.R P P P R 6.G 6.) P ",
"P ) G P P G P 6.P R 6.6.P P P 6.P R 6.6.P P P 6.P ) G P P G P 6.",
") 8.) G 2       * ) P P G ) ) 8.) ) P P G ) ) ;       , ) 6.6.8.",
"G P G P 7 . 3 3 4 t J R 6.R G P G P P R 6.Y q 5 3 3 . < 8.) G P ",
"6.G R R < X n n k   ^ 6.) R R 6.6.P ) ) ) I   k n n X 2 P G P 6.",
"R G R ) < X n n @.~.# 2 G 6.R R R G R ) < # ~.@.n n X 2 G 6.R R ",
") 8.G ) l h 3 s.C.~.w.-.9 %.$.+.%.,.O.0 *.w.~.C.s.3 g v R ) R P ",
"P G P 6.P I   S.~.~.~.c.  4.4.4.4.4.4.  c.~.~.~.S.  ..8.P ) R R ",
"G P R 6.G ..  x.D.~.~.J.h.Z.G.~.~.G.Z.h.J.~.~.D.x.  A P ) 6.R P ",
"P ) G P P B j f [ F.!.Y.J.L.T.~.~.T.L.J.Y.~.~.} a z 5.6.P P P 6.",
") 8.) G ) 6.6.1 e B.E.!.~.~.~.~.~.~.~.~.!.Q.I.i : ) P P G ) ) 8.",
"G P G P 8.) G P V n B.F.~.~.~.~.~.~.~.~.F.B.n K G P P R 6.R G P ",
"6.G R ) P G P 6 p H.U.R.~.~.~.~.~.~.~.~.R.U.H.p 6 P ) 6.) R R 6.",
"R G ) ) B X.U % u ~.~.^./.~.~.~.~.~.~./.^.~.~.u & G ) ) G 6.R R ",
"6.6.R 6.S n n $ u ~.~.(.).~.~.~.~.~.~.).(.~.~.u * 6.R 6.R ) R P ",
"R G 6.8.C Z p.> w l.W.M.= ~.~.~.~.~.~.= M.W.l.w & G 6.8.P ) R R ",
"G ) P P H F h.W E q.K.m.` ~.P.J.J.P.~.` m.K.q.y 8 ) P P ) 6.R P ",
"P R 6.6.C F h.h.i.9.k.z.~.~.A.h.h.A.~.~.z.k.9.#.P R 6.6.P P P 6.",
") ) P P m F h.h.r.n X - n Z.Z.Z.Z.Z.Z.n - X n 7.) ) P P G ) ) 8.",
"G P P R / L 2.y.t.~ ' | ~ u.u.u.u.u.u.~ | ' ~ o.! P P R 6.R G P ",
"6.P ) ) ) T n r.a.4.V.v.4.n n n n n n 4.v.V.4.4.1.P ) 6.) R R 6.",
"R G R ) P R G :. .  N.F.~.4.g.Z.Z.g.4.~.F.N.   .>.G ) ) G 6.R R ",
") 8.G ) P ) R :.3.;.] { =.j.n.Z.Z.n.j.=.{ ] ;.3.<.6.R 6.R ) R P ",
"P G P 6.P R R <.0.Z.@     Z.Z.Z.Z.Z.Z.    @ Z.0.>.G 6.8.P ) R R ",
"G P R 6.G 6.) P x   N.Z.Z.Z.Z.Z.Z.Z.Z.Z.Z.V.4.Q P ) P P ) 6.R P ",
"P ) G P P G P 6.D z s d d &.&.&.&.&.&.Z.b.f.r ( P R 6.6.P P P 6.",
") 8.) G ) 6.6.8.) ) + X X M M N M N M N.d.e.O _ ) ) P P G ) ) 8.",
"G P G P 8.) G P G P P R 6.R G P G P G     o G P G P P R 6.R G P ",
"6.G P R R P P 8.6.R ) 6.) R R 6.6.G P b b c P 8.6.R ) 6.) R R 6."
};
