/* XPM */
static char *result[] = {
/* columns rows colors chars-per-pixel */
"32 32 56 1 ",
"  c #988669",
". c #9D8B6E",
"X c #968A73",
"o c #9C8D73",
"O c #9B8E79",
"+ c #9F9076",
"@ c #9D927C",
"# c #A18E73",
"$ c #A59275",
"% c #A2957D",
"& c #AA9679",
"* c #A7987F",
"= c #AE9B7E",
"- c #B09C7F",
"; c #9E9583",
": c #9F9887",
"> c #A19682",
", c #A49984",
"< c #AD9D83",
"1 c #A59D8B",
"2 c #AA9E8A",
"3 c #B19E83",
"4 c #A69F91",
"5 c #ACA18D",
"6 c #B3A186",
"7 c #B5A48B",
"8 c #B8A78D",
"9 c #B7A88F",
"0 c #B9A88F",
"q c #A6A192",
"w c #ABA494",
"e c #A7A79D",
"r c #ADA799",
"t c #ACA89B",
"y c #B2A692",
"u c #B5A995",
"i c #BCAC94",
"p c #B3AC9B",
"a c #BDAF99",
"s c #BEB19A",
"d c #AEAEA5",
"f c #B3AEA0",
"g c #AFB0A9",
"h c #B6B1A3",
"j c #BBB4A3",
"k c #B7B5A9",
"l c #BEBAAC",
"z c #C1B39C",
"x c #C3B6A1",
"c c #C5BAA6",
"v c #C9BCA6",
"b c #C6BCA9",
"n c #C9BEAC",
"m c #C2BFB4",
"M c #C9C0AE",
"N c #CAC1B0",
/* pixels */
"jxxzxzzzazasassisxxxzvnvsvzzxzss",
"szzaaais7a00787i9zzziazz9i009i00",
"uaaai00s777=<<3<6aiiiisi<6=6=7==",
"qw5551551>1,+O@O;5511,,%+OXXXXXO",
"aauszzzzszzpszzaasikzszzzzxkzsia",
"8i7szassaiiu007a087ksisizzafi888",
"787ui888ai0w676776<h08988iip877<",
";;;1;;,@;;,q,,@%@;1d55q5,,1e:;@@",
"ssszsziau00i0i08<3$336-6-087z8z8",
"p7i60077ui0i0zzz<866337760i00zz8",
"p6666<=6ysizssia88i9i8009siaizzz",
"w+;%11@;qq;5ww5wtwppwpwwpwwq5126",
"76=u0000667y<3&63-3h3666777p&&&=",
"696siii0ii6u67368<8ha678000p3333",
"ii6psisi0aup8670i00haiii8iap000i",
"555frqqq11qtqqtwwwwgwqwq;11t2,21",
"hzazzzzzhi0zzzzzsaiazzzzy3336=8-",
"f0887z7zfi093870faii8a8au3666363",
"h7383i30u33333<3p886u768p86i8908",
"4#%%,,,,rOOO#O%X1@%+$>%%tw55y5y<",
"czzazzizzzijzzzzzsalzsxzxzzjzzzz",
"3i9i008iai7a98ii608j07iiiiiii8ii",
"373a87780072333368<k780086833336",
">#%,%%&,,%,,,O$%%$$w*%,,,,,>%%o%",
"nnbbnvbvmxccncccmvvnMcNMmzcccxcs",
"azzizzzzp86897iilzaa0iiis8888376",
"9aiiiz0iy=-63336j08i08i0y3<6&=-&",
"3833332<,$#o####t<<5<<<7,..#. .o",
"nbnayauaisuzzxzzxzzu0i7iiu7bnMNn",
"ziz<3333333izi8ia8i733<366<iiiii",
"i083i33787=iiiz9ai0866087877i90i",
"337<2<<2<2<7222y57552,<,,5y<<677"
};
